<svg preserveAspectRatio="none" width="100%" height="100%" overflow="visible" style="display: block;" viewBox="0 0 109.45 36" fill="none" xmlns="http://www.w3.org/2000/svg">
<g id="Union">
<path fill-rule="evenodd" clip-rule="evenodd" d="M90.9896 0.0216208C91.7488 -0.0124707 92.5746 0.000824233 93.3803 0.0137847C93.7481 0.0197004 94.1118 0.0255176 94.463 0.0267632C94.5767 0.0271566 94.7929 0.0876969 95.0323 0.154834C95.3496 0.243821 95.708 0.34436 95.9234 0.331391C96.2088 0.314159 96.3265 0.254039 96.4494 0.191321C96.5875 0.120813 96.7323 0.0469193 97.1294 0.0267632C97.813 -0.00792936 98.3065 0.458206 98.7516 0.878693C99.1929 1.29558 99.5868 1.6676 100.072 1.46248C100.173 1.41981 100.234 1.26636 100.3 1.10116C100.404 0.842507 100.519 0.555136 100.815 0.619735C101.915 0.859682 102.235 1.85316 102.554 2.84359C102.786 3.56164 103.017 4.27815 103.544 4.70478C103.632 4.77621 103.754 4.82441 103.85 4.76307C104.104 4.59993 104.144 4.00948 104.182 3.45236C104.223 2.84674 104.262 2.2804 104.57 2.34502C106.08 2.6628 106.307 7.58723 106.329 9.46178C106.334 9.80374 106.055 10.0759 105.713 10.0757L102.694 10.074C102.355 10.0738 102.081 9.80528 102.072 9.46631C102.033 8.02068 101.859 5.09714 100.574 5.37465C100.467 5.39766 100.373 5.46637 100.335 5.56847C100.237 5.83101 100.262 6.24153 100.284 6.62842C100.302 6.92025 100.318 7.19869 100.281 7.38999C100.271 7.4374 100.249 7.51249 100.219 7.60303C100.067 8.0609 99.5365 8.07321 99.385 7.61516C99.3137 7.39963 99.2471 7.17574 99.1799 6.95007C98.8255 5.75892 98.4557 4.5169 97.3008 4.17805C96.7761 4.02398 96.5992 4.19709 96.4226 4.37004C96.2674 4.52202 96.1124 4.67389 95.7217 4.60328C95.4978 4.56277 95.2778 4.45348 95.0579 4.3442C94.8856 4.25861 94.7134 4.17291 94.5392 4.12038C94.4952 4.10709 94.4497 4.10154 94.4037 4.09981C94.1413 4.08995 93.8415 4.06015 93.5236 4.02856C92.4729 3.92414 91.224 3.80007 90.4718 4.31053C90.2981 4.42698 90.1474 4.59217 89.9969 4.75719C89.6939 5.08923 89.3913 5.42096 88.9015 5.35542C88.6426 5.32089 88.5942 5.07267 88.5471 4.83065C88.4788 4.47997 88.4131 4.14232 87.7128 4.4866C87.1136 4.82522 86.782 5.46704 86.6283 6.11675C86.1051 8.32423 85.9604 11.1673 86.9421 13.2669C87.1486 13.7085 87.886 14.319 88.4092 14.0556C88.535 13.9922 88.5869 13.8221 88.6396 13.6491C88.7192 13.3881 88.8009 13.1206 89.1411 13.2031C89.6414 13.356 89.9639 13.6825 90.2878 14.0106C90.6634 14.3911 91.041 14.7737 91.7004 14.89C92.1632 14.9717 92.3221 14.8364 92.4832 14.6992C92.6459 14.5607 92.811 14.4204 93.2932 14.4995C93.6604 14.5598 94.0419 14.7794 94.4282 15.0019C95.0167 15.3408 95.6167 15.6864 96.1957 15.4852C96.2298 15.4733 96.2624 15.4565 96.2926 15.4367C96.4027 15.3642 96.4674 15.3061 96.5175 15.2612C96.6575 15.1357 96.6829 15.113 97.267 15.1631C97.7111 15.2013 98.1448 15.559 98.5677 15.9079C99.0623 16.316 99.5424 16.712 100.007 16.5706C100.077 16.5493 100.138 16.5048 100.181 16.4458C100.241 16.3647 100.282 16.2783 100.32 16.1976C100.412 16.0066 100.488 15.8477 100.751 15.8659C101.701 15.9317 102.08 16.7041 102.453 17.4645C102.742 18.0542 103.027 18.6366 103.573 18.8765C103.663 18.9159 103.768 18.9276 103.855 18.882C104.093 18.7565 104.129 18.4371 104.167 18.0979C104.199 17.8165 104.232 17.5213 104.384 17.3117C104.44 17.2335 104.536 17.1863 104.632 17.1753C107.709 16.8235 106.195 31.772 105.343 33.1604C104.635 34.3159 104.381 33.429 104.143 32.6026C104.033 32.2206 103.928 31.8515 103.782 31.703C103.713 31.6318 103.601 31.6522 103.523 31.7136C103.212 31.9561 102.952 32.5434 102.673 33.1713C102.302 34.0086 101.898 34.9182 101.302 35.1793C101.242 35.2054 101.193 35.2345 101.146 35.2621C101.04 35.3243 100.946 35.3793 100.777 35.3771C100.716 35.3763 100.655 35.3607 100.604 35.3274C100.445 35.2237 100.36 35.0481 100.28 34.8824C100.141 34.5964 100.016 34.3394 99.5521 34.5311C99.2323 34.6632 98.9772 34.905 98.722 35.1469C98.5337 35.3253 98.3454 35.5039 98.1309 35.6386C97.7548 35.8746 97.2563 36.0189 96.8031 35.9299C96.6903 35.9077 96.5761 35.8566 96.4614 35.8054C96.3118 35.7385 96.1612 35.6712 96.0112 35.6666C95.6809 35.6567 95.3395 35.7452 95.0023 35.8325C94.8063 35.8833 94.6116 35.9337 94.4212 35.9643C94.3914 35.9691 94.3613 35.9711 94.3311 35.9711C94.0027 35.9712 93.6499 35.978 93.2884 35.985C92.4607 36.001 91.5871 36.0179 90.855 35.9569C90.7185 35.9456 90.4761 35.8387 90.2027 35.7181C89.7063 35.499 89.1073 35.2347 88.8529 35.4149C88.5096 35.6578 88.4021 35.7871 88.2677 35.8283C88.1285 35.8708 87.9604 35.8188 87.4719 35.7008C87.0174 35.5911 86.6458 35.1258 86.2932 34.6841C85.8991 34.1903 85.5286 33.7261 85.0922 33.8215C85.0238 33.8364 84.9619 33.8754 84.9186 33.9305C84.8044 34.0757 84.7579 34.2668 84.7144 34.4457C84.6452 34.7297 84.5834 34.9829 84.2703 34.9725C83.995 34.9633 83.5483 34.6146 83.3852 34.4026C82.844 33.7005 82.5694 32.7677 82.2977 31.8448C82.1332 31.2863 81.9698 30.7314 81.749 30.2334C81.5862 29.8663 81.0679 29.8035 80.9195 30.1767C80.9144 30.1896 80.9093 30.2027 80.9044 30.2161C80.8955 30.2408 80.8884 30.3685 80.8781 30.5551C80.8309 31.4099 80.7154 33.5015 80.0341 32.5873C78.7147 30.818 78.7876 27.9189 78.8453 25.6251L78.8483 25.5078C78.8569 25.1656 79.1366 24.8919 79.4789 24.8924L82.4915 24.8965C82.8309 24.897 83.1067 25.1676 83.1206 25.5067C83.1741 26.8139 83.3653 29.3033 84.1972 29.5766C84.3017 29.611 84.4176 29.5756 84.4928 29.4952C84.7626 29.2066 84.7577 28.6749 84.7535 28.2403C84.7524 28.1199 84.7512 28.0068 84.7561 27.9085C84.7743 27.5472 84.7628 27.1493 84.7511 26.7448C84.7368 26.2498 84.7223 25.7447 84.7614 25.2844C84.7807 25.0578 84.9775 24.8951 85.2049 24.897C85.4453 24.8991 85.6432 25.0824 85.6586 25.3224L85.6603 25.3497C85.7744 27.1283 86.0607 31.5897 88.1932 31.5321C88.4604 31.5178 88.5329 31.3169 88.6069 31.1117C88.6788 30.9123 88.7522 30.7088 89.0071 30.6682C89.341 30.6152 89.5553 30.7797 89.8002 30.9884C89.9011 31.0744 89.9916 31.1592 90.0778 31.2397C90.4203 31.56 90.6929 31.8149 91.2631 31.8287C91.4714 31.8337 91.6847 31.8413 91.9008 31.8491C92.7355 31.8792 93.6132 31.9109 94.4113 31.7981C94.6306 31.7669 94.8535 31.6504 95.0781 31.533C95.4389 31.3443 95.8042 31.1533 96.1669 31.3104C96.2041 31.3265 96.2379 31.3497 96.2688 31.3759C96.3043 31.4059 96.3379 31.4354 96.3704 31.4639C96.5972 31.6629 96.7706 31.815 97.1431 31.7523C98.1985 31.5744 98.596 30.6385 98.9806 29.7328C99.1375 29.3633 99.2922 28.9987 99.4887 28.6928C99.9168 28.0241 100.103 28.8289 100.284 29.6134C100.379 30.0222 100.472 30.4254 100.598 30.6117C100.655 30.6967 100.767 30.7079 100.862 30.6697C102.776 29.8993 103.073 21.2605 100.753 21.1427C100.666 21.1383 100.576 21.1628 100.511 21.2207C100.325 21.3865 100.316 21.6364 100.306 21.925C100.297 22.1788 100.288 22.4626 100.155 22.7452C100.011 23.0533 99.5995 23.0231 99.419 22.7346C99.276 22.506 99.1466 22.2589 99.0165 22.0104C98.5608 21.1406 98.0958 20.2531 97.0043 20.0734C96.7796 20.0365 96.6011 20.1979 96.4239 20.3581C96.255 20.5109 96.0872 20.6626 95.8819 20.64C95.4463 20.592 95.017 20.3386 94.5855 20.0838C94.1579 19.8314 93.728 19.5777 93.2878 19.5214C92.8314 19.463 92.6648 19.5789 92.501 19.6928C92.2991 19.8332 92.1012 19.9706 91.3699 19.7753C91.026 19.6834 90.6815 19.4383 90.3434 19.1976C89.7875 18.802 89.2487 18.4186 88.7574 18.748C88.7131 18.7777 88.6693 18.8405 88.6194 18.9119C88.511 19.0669 88.374 19.2628 88.1417 19.2494C87.641 19.2206 87.2619 18.9671 86.9042 18.6304C86.8354 18.5654 86.7225 18.4111 86.5825 18.2198C86.1191 17.5862 85.3584 16.5462 84.9158 16.9997C84.777 17.1414 84.768 17.3505 84.7594 17.552C84.7474 17.8329 84.7359 18.0994 84.3747 18.1489C84.0971 18.1871 83.6694 17.888 83.5086 17.7161C82.5339 16.6708 81.7337 12.5501 81.6191 10.8855C81.6088 10.7362 81.4912 10.616 81.3418 10.6073C81.2999 10.6049 81.2607 10.5933 81.2256 10.575C81.1745 10.5885 81.1205 10.5945 81.0647 10.5913C81.0047 11.1416 80.88 17.5838 79.8064 15.2376C78.8673 13.1804 78.954 6.79666 79.7886 4.60843C79.8792 4.37175 79.9637 4.15153 80.1573 4.00798C80.2391 3.94735 80.3462 3.92707 80.4439 3.95558C80.9244 4.09577 80.8724 4.74534 80.854 5.18242C80.797 6.54202 80.9069 7.82337 81.0522 9.17099C81.1162 9.17505 81.178 9.18989 81.2358 9.2136C81.2748 9.19738 81.3181 9.18906 81.3632 9.19119C81.5031 9.19774 81.6143 9.08935 81.6293 8.95011C81.8079 7.29036 82.1515 5.65054 82.5588 3.98558C82.6461 3.62935 83.4701 0.477516 84.6796 1.46554C84.7653 1.53551 84.7599 1.68208 84.7535 1.85098C84.7459 2.05478 84.7371 2.29102 84.8857 2.46428C84.947 2.53575 85.0416 2.56856 85.1358 2.56945C85.7413 2.57511 86.0991 2.04153 86.4753 1.48023C86.8978 0.849924 87.3437 0.184693 88.1903 0.208952C88.3949 0.214831 88.4949 0.337458 88.5985 0.464605C88.7096 0.600993 88.8251 0.742578 89.0783 0.750744C89.4062 0.761292 89.7587 0.565514 90.1034 0.374122C90.4129 0.202247 90.7162 0.033935 90.9896 0.0216208ZM84.4457 6.93672C84.3139 6.75883 84.0723 6.8393 83.9753 7.03835C83.4413 8.13409 83.3729 10.5652 83.9385 11.6362C84.0622 11.8704 84.3666 11.9012 84.507 11.6766C85.1598 10.6318 85.0352 7.73207 84.4457 6.93672Z" fill="var(--fill-0, #DFF0FF)" style="fill:#DFF0FF;fill:color(display-p3 0.8745 0.9412 1.0000);fill-opacity:1;"/>
<path fill-rule="evenodd" clip-rule="evenodd" d="M62.1378 0.519335C62.4613 0.519108 62.7313 0.764913 62.7664 1.08647C62.8879 2.19992 63.1045 3.73366 63.4644 4.85355C63.6056 5.29272 64.1531 5.31588 64.268 4.8691C64.3779 4.44154 64.3683 4.02674 64.3572 3.54676C64.3529 3.35753 64.3482 3.15816 64.3506 2.94387C64.3539 2.66838 64.3508 2.39143 64.3478 2.11459C64.3437 1.74347 64.3396 1.37002 64.3507 1.00003C64.3588 0.733881 64.5799 0.527836 64.8461 0.526559C65.0835 0.525446 65.2907 0.688247 65.3421 0.919955C65.845 3.18377 66.1024 5.50743 66.3584 7.81951C66.4425 8.57936 66.5265 9.33801 66.619 10.0928C66.6366 10.2309 66.6545 10.378 66.6733 10.5319L66.6768 10.5613C66.8194 11.7317 67.0095 13.2931 67.4325 14.4116C67.5533 14.7309 67.9396 14.7363 68.1039 14.437C68.2745 14.1256 68.2556 13.2472 68.2351 12.2971C68.2094 11.1041 68.1813 9.79642 68.5224 9.34938C68.6316 9.20617 68.8371 9.2546 68.9295 9.40925C69.4579 10.2938 69.7688 13.1294 70.0983 16.1357C70.4039 18.9242 70.7257 21.8596 71.2521 23.5208C71.3883 23.9504 71.9043 23.9728 72.0184 23.5369C72.1782 22.9253 72.1519 22.247 72.1246 21.5428C72.0981 20.8581 72.0705 20.1481 72.2121 19.449C72.3111 18.9595 72.8993 18.9535 73.0516 19.4292C73.3263 20.2868 73.4473 21.1881 73.5693 22.0975L73.5747 22.1375C73.588 22.2366 73.6013 22.3357 73.6148 22.4349C73.8331 24.1317 74.0414 25.83 74.2389 27.5295C74.2668 27.7582 74.2952 28.0051 74.3249 28.2635C74.4838 29.6487 74.6835 31.3897 75.0979 32.7363C75.2433 33.2085 75.8197 33.2159 75.9255 32.7332C76.0763 32.0454 76.0406 31.3553 76.0056 30.6786C75.9701 29.9928 75.9352 29.3199 76.0959 28.675C76.211 28.2134 76.7608 28.2407 76.8972 28.6964C77.4051 30.3939 77.718 33.0813 77.8736 34.8004C77.9066 35.1647 77.6181 35.4753 77.2524 35.4753L74.1129 35.4747C73.7966 35.4746 73.5306 35.2387 73.4915 34.9248C73.3921 34.1246 73.2801 33.3415 73.0332 32.5897C72.8839 32.1349 72.3189 32.1259 72.2098 32.5921C72.053 33.2631 72.0749 33.9848 72.0973 34.7202C72.0986 34.7629 72.1 34.8057 72.1012 34.8485C72.1115 35.1951 71.8318 35.4768 71.485 35.4769H71.4403C71.1328 35.4769 70.8725 35.2548 70.8314 34.95C70.7435 34.2965 70.6088 33.2196 70.4589 32.0199L70.4565 32.0013C70.1566 29.6023 69.796 26.7179 69.6252 25.7486C69.5879 25.5376 69.4191 25.4186 69.2048 25.4195L68.8716 25.4209C68.5237 25.4225 68.2458 25.7071 68.2539 26.0549C68.2651 26.5391 68.2637 26.927 68.1557 27.3448C68.0392 27.7952 67.4757 27.8038 67.3293 27.3623C67.1807 26.9141 67.0915 26.4351 67.0233 25.9701C66.9776 25.6581 66.7133 25.4237 66.398 25.4238L54.4337 25.4258C54.1143 25.4259 53.8497 25.667 53.789 25.9806C53.7335 26.2676 53.6595 26.5437 53.5631 26.8145C53.426 27.2 52.8856 27.229 52.777 26.8345C52.7121 26.6027 52.6907 26.3276 52.6848 26.0531C52.6772 25.7056 52.4027 25.4237 52.0552 25.4246L51.7644 25.4254C51.441 25.4263 51.1717 25.6731 51.1391 25.9948C51.0359 27.0135 50.9058 28.064 50.7778 29.0975C50.7169 29.5894 50.6561 30.0799 50.5993 30.5587C50.5792 30.728 50.5587 30.9037 50.5378 31.0824L50.5357 31.1C50.3898 32.3481 50.2211 33.7918 49.9827 35.0012C49.9278 35.2795 49.6814 35.4758 49.3977 35.4765C49.0667 35.4773 48.7962 35.2134 48.8079 34.8827C48.814 34.7071 48.8231 34.5287 48.8322 34.3489L48.8328 34.3377C48.8748 33.5138 48.9182 32.6594 48.702 31.8977C48.5781 31.4616 48.0527 31.479 47.911 31.9096C47.6098 32.8248 47.4422 33.9813 47.3403 34.9095C47.3051 35.2307 47.0359 35.4762 46.7127 35.4764L43.6467 35.4777C43.3017 35.4778 43.0229 35.2008 43.0433 34.8565C43.1428 33.1806 43.5931 30.064 44.1143 28.4167C44.2267 28.0616 44.7185 28.0273 44.8028 28.3901C44.9673 29.0993 44.9332 29.8523 44.8992 30.6021C44.8638 31.3841 44.8286 32.1634 45.0187 32.8885C45.1365 33.3376 45.6788 33.3292 45.8201 32.8869C46.0578 32.143 46.1783 31.2931 46.285 30.5402C46.3062 30.3912 46.3269 30.245 46.3478 30.1051C46.552 28.7363 46.7049 27.3552 46.8579 25.9733C47.1053 23.7391 47.3533 21.4999 47.8179 19.3093C47.8412 19.1995 47.8724 19.0894 47.9098 18.9805C48.0497 18.5726 48.5693 18.5499 48.6892 18.9641C48.878 19.6161 48.8375 20.3912 48.7966 21.1728C48.7547 21.9743 48.7124 22.7828 48.9167 23.4723C49.0395 23.8867 49.5415 23.8636 49.6791 23.454C49.9281 22.713 50.0575 21.8215 50.1635 21.091C50.1713 21.0373 50.1789 20.9842 50.1865 20.9323C50.194 20.8812 50.2015 20.8311 50.2088 20.782C50.419 19.3772 50.5764 17.9594 50.7338 16.5412C50.9851 14.2782 51.2366 12.0129 51.7032 9.79334C51.7202 9.71231 51.7409 9.63263 51.7648 9.55422C51.9018 9.10374 52.4854 9.10214 52.5989 9.55912C52.7604 10.2089 52.7298 10.8913 52.6982 11.5938C52.6669 12.2908 52.6347 13.0078 52.7884 13.7324C52.8911 14.2167 53.4661 14.2258 53.611 13.7524C53.8879 12.8483 54.0263 11.8011 54.1431 10.9177L54.1444 10.9083L54.1453 10.9008C54.1599 10.791 54.1741 10.6836 54.1882 10.5795C54.3504 9.37953 54.489 8.17764 54.6276 6.97615L54.6281 6.97137C54.8581 4.97756 55.088 2.98453 55.4254 1.00223C55.4727 0.724532 55.7143 0.522786 55.996 0.522763C56.3107 0.522757 56.562 0.772973 56.5409 1.08696C56.5329 1.20532 56.5234 1.33266 56.5133 1.4664C56.4218 2.68337 56.2897 4.44072 56.9592 4.97991C57.0092 5.02013 57.0782 5.02254 57.1365 4.99582C57.1641 4.98316 57.1881 4.96526 57.2057 4.94048C57.6337 4.337 57.9246 2.27458 58.058 1.08904C58.0941 0.767916 58.3638 0.522159 58.687 0.521906L62.1378 0.519335ZM59.5035 6.45701C59.1861 6.45701 58.9187 6.69425 58.881 7.00945L58.2185 12.5579C58.2094 12.6324 58.1977 12.7335 58.1836 12.8559C58.055 13.972 57.7227 16.8564 57.2221 17.5994C57.1333 17.7312 56.9497 17.735 56.8618 17.6026C56.5135 17.0784 56.5421 15.5423 56.5657 14.2722C56.58 13.5028 56.5925 12.8307 56.5183 12.5398C56.4165 12.1364 55.8239 12.159 55.6933 12.554C55.6529 12.6764 55.6177 12.8049 55.5864 12.9446C55.0286 15.4353 54.6721 18.0707 54.498 20.6363C54.4736 20.9954 54.7599 21.2979 55.1198 21.2979L65.7129 21.2986C66.0722 21.2986 66.359 20.9971 66.3318 20.6389C66.2997 20.2157 66.2553 19.7702 66.1955 19.4074C66.0931 18.7886 66.0204 18.0846 65.9448 17.3512C65.8029 15.9762 65.6502 14.4953 65.27 13.2767C65.1232 12.8061 64.5423 12.8002 64.432 13.2806C64.2699 13.9874 64.3055 14.6937 64.3412 15.4024C64.3763 16.0991 64.4115 16.7982 64.2592 17.5022C64.1549 17.9838 63.6011 17.9818 63.4681 17.5074C62.9223 15.561 62.5661 12.0704 62.2885 9.34926C62.2096 8.57628 62.1068 7.68239 62.0243 7.00419C61.9861 6.69108 61.7198 6.45703 61.4044 6.45701H59.5035Z" fill="var(--fill-0, #DFF0FF)" style="fill:#DFF0FF;fill:color(display-p3 0.8745 0.9412 1.0000);fill-opacity:1;"/>
<path d="M0.629924 0.520926C0.944894 0.521795 1.20089 0.775312 1.20392 1.09027C1.23928 4.79494 1.20014 8.57432 1.20037 12.2768L1.19853 34.9022C1.19849 35.2198 0.9411 35.4772 0.623557 35.4773C0.30944 35.4775 0.0531036 35.2256 0.0490743 34.9116C0.0293714 33.375 0.030544 31.8116 0.0502986 30.282C0.175984 20.5747 -0.113012 10.7886 0.0528699 1.0861C0.0582599 0.771594 0.315372 0.520099 0.629924 0.520926Z" fill="var(--fill-0, #DFF0FF)" style="fill:#DFF0FF;fill:color(display-p3 0.8745 0.9412 1.0000);fill-opacity:1;"/>
<path d="M40.6987 0.521661C41.0418 0.52229 41.3211 0.798755 41.3244 1.14194C41.4345 12.3759 41.3238 23.616 41.3178 34.8505C41.3176 35.1963 41.0334 35.4768 40.6875 35.4772C40.3458 35.4776 40.0627 35.2045 40.0572 34.8628C39.9925 30.813 40.064 26.4979 40.0638 22.449L40.0704 1.1483C40.0705 0.801755 40.3521 0.521068 40.6987 0.521661Z" fill="var(--fill-0, #DFF0FF)" style="fill:#DFF0FF;fill:color(display-p3 0.8745 0.9412 1.0000);fill-opacity:1;"/>
<path d="M108.272 21.6077C108.371 21.2952 108.743 21.208 108.921 21.4833C109.905 23.0068 109.325 27.4943 108.73 29.027C108.685 29.1442 108.576 29.2702 108.476 29.1949C108.17 28.9664 108.038 27.6754 108.057 27.4727C108.186 26.0493 107.785 23.1478 108.272 21.6077Z" fill="var(--fill-0, #DFF0FF)" style="fill:#DFF0FF;fill:color(display-p3 0.8745 0.9412 1.0000);fill-opacity:1;"/>
<path fill-rule="evenodd" clip-rule="evenodd" d="M10.3857 11.4371L10.3954 11.5117C10.4115 11.6364 10.4276 11.7612 10.444 11.8853C10.6661 13.6743 10.8755 15.4649 11.0726 17.2568C11.0998 17.4946 11.1277 17.7553 11.1574 18.0325C11.3274 19.6211 11.5558 21.7544 12.0379 23.2403C12.1545 23.5996 12.6506 23.617 12.7461 23.2516C12.9436 22.4948 12.9026 21.6904 12.8617 20.8887C12.8229 20.1263 12.7842 19.3657 12.9506 18.6515C13.0602 18.1813 13.6177 18.1982 13.7567 18.6606C14.179 20.0665 14.3878 22.0021 14.5453 23.4614C14.576 23.7461 14.6049 24.0136 14.6329 24.2546C14.8443 26.2158 15.0748 28.175 15.3244 30.1317C15.3356 30.2133 15.347 30.2972 15.3586 30.383C15.4662 31.1795 15.5962 32.1413 15.8581 32.9568C15.9975 33.3906 16.5256 33.4057 16.6409 32.9649C16.83 32.2414 16.7873 31.4256 16.7455 30.6241C16.7044 29.8377 16.664 29.0646 16.844 28.4067C16.9623 27.9744 17.4903 28.0108 17.6499 28.4296C18.3971 30.3905 18.5274 32.814 18.6221 34.8779C18.6374 35.2124 18.9131 35.4752 19.248 35.475L22.0381 35.4733C22.3636 35.4731 22.6345 35.2239 22.6637 34.8997C22.8195 33.1659 23.1469 30.0443 23.7046 28.3754C23.823 28.0213 24.3012 28.0029 24.4035 28.3619C24.5746 28.9617 24.5457 29.7789 24.5163 30.6141C24.4759 31.7598 24.4342 32.9396 24.9059 33.6386C24.9254 33.6675 24.9561 33.6863 24.9905 33.6924C25.0273 33.699 25.0623 33.6938 25.0892 33.6678C25.6724 33.1045 26.01 29.9558 26.3695 26.6021C26.6826 23.6817 27.0126 20.605 27.5356 18.9456C27.6692 18.522 28.177 18.4995 28.3021 18.9257C28.5076 19.6261 28.459 20.3978 28.4104 21.1692C28.3629 21.9234 28.3154 22.678 28.5052 23.3647C28.6245 23.7963 29.1544 23.7837 29.2992 23.3601C29.5292 22.6874 29.6302 21.9512 29.7262 21.2513C29.7701 20.9317 29.813 20.619 29.8666 20.3241C30.0206 19.4762 30.1599 18.1519 30.3149 16.6788C30.5941 14.0236 30.9243 10.884 31.4834 9.17931C31.5936 8.84358 32.0811 8.79951 32.1626 9.14332C32.3484 9.92751 32.3216 10.7492 32.2947 11.5709C32.2713 12.2872 32.248 13.0044 32.3653 13.696C32.4425 14.1507 33.0524 14.1202 33.1873 13.6791C33.4478 12.8266 33.6177 11.851 33.7501 10.8582C33.7728 10.6879 33.9176 10.56 34.0894 10.56C34.2749 10.56 34.4263 10.7083 34.43 10.8937C34.5132 15.1329 34.4746 19.3744 34.436 23.616C34.4019 27.3638 34.3678 31.1146 34.4178 34.8609C34.4224 35.2033 34.7017 35.478 35.0442 35.4778L38.0258 35.4759C38.3718 35.4756 38.6523 35.1951 38.6523 34.8491L38.6555 12.6834C38.6555 11.3759 38.6611 10.054 38.6669 8.72776L38.667 8.71304C38.678 6.18158 38.6891 3.63425 38.6598 1.13985C38.6558 0.797406 38.3767 0.522408 38.0343 0.522151L33.9995 0.51958C33.7057 0.519401 33.4529 0.723763 33.3834 1.00921C33.3358 1.20495 33.285 1.39778 33.228 1.58835C33.0824 2.0756 32.4139 2.09865 32.3253 1.5979C32.3018 1.4652 32.2911 1.32476 32.2869 1.15296C32.2782 0.805766 32.0046 0.521675 31.6573 0.520192L31.3744 0.518967C31.056 0.517619 30.7872 0.755253 30.7494 1.07141L30.1103 6.41636C30.0923 6.56702 30.0729 6.73708 30.0521 6.92032C29.9115 8.15735 29.6973 10.0426 29.2938 11.3137C29.1539 11.7545 28.6285 11.7553 28.5177 11.3063C28.3373 10.5751 28.3764 9.79367 28.4144 9.03447C28.4519 8.28435 28.4883 7.55581 28.3109 6.91897C28.191 6.48851 27.666 6.52263 27.5246 6.94652C27.2198 7.86064 27.0839 8.91708 26.9636 9.85346L26.9606 9.87669C26.9458 9.99219 26.9312 10.1058 26.9164 10.2171C26.6547 12.2881 26.406 14.3608 26.1704 16.4348C26.1543 16.568 26.1372 16.7152 26.1188 16.8735C25.9861 18.0145 25.7866 19.7301 25.4026 20.9108C25.264 21.337 24.7477 21.3505 24.6264 20.919C24.4257 20.2056 24.475 19.4335 24.5245 18.6611C24.5752 17.8684 24.6261 17.0749 24.4063 16.345C24.3009 15.9949 23.8191 16.0214 23.6925 16.3644C23.3687 17.2424 23.2361 18.2355 23.1123 19.1635L23.1062 19.2093C23.0928 19.3094 23.0796 19.4087 23.0661 19.5069C22.8359 21.2973 22.6195 23.0896 22.4168 24.8833C22.3967 25.0543 22.3764 25.2377 22.3552 25.4287C22.3241 25.71 22.0863 25.9222 21.8033 25.9222H19.5557C19.2363 25.9222 18.9682 25.682 18.936 25.3643C18.9238 25.2434 18.9113 25.1193 18.8988 24.9946L18.8976 24.9831C18.8717 24.7242 18.8455 24.4617 18.8202 24.2241C18.5137 21.3437 18.1445 17.8737 17.6083 16.0873C17.4781 15.6536 16.9702 15.6379 16.8538 16.0756C16.666 16.7821 16.7053 17.5605 16.745 18.3466C16.7831 19.1021 16.8216 19.8649 16.6591 20.5776C16.5515 21.0498 15.9954 21.0319 15.858 20.5676C15.4128 19.0621 15.184 16.9147 15.0187 15.3628C14.9891 15.0853 14.9612 14.8232 14.9348 14.591C14.7327 12.7099 14.512 10.8309 14.2727 8.95427C14.2601 8.86257 14.2475 8.76834 14.2346 8.67205C14.1199 7.81567 13.9834 6.79695 13.6846 5.9566C13.5658 5.62254 13.0785 5.59015 12.9928 5.93419C12.7895 6.75047 12.8278 7.57006 12.8656 8.38064C12.9006 9.12914 12.9352 9.87048 12.7788 10.594C12.6734 11.0814 12.0914 11.0744 11.9477 10.5969C11.5933 9.41955 11.4333 8.01251 11.298 6.82298L11.2941 6.78868C11.2731 6.60342 11.2526 6.42356 11.232 6.25082L10.6486 1.07521C10.6129 0.758453 10.3451 0.51886 10.0264 0.518478L9.42899 0.517743C9.17712 0.517451 8.96291 0.689272 8.88647 0.92926L8.87912 0.951911C8.75442 1.3338 8.24341 1.30704 8.10408 0.930239C8.01908 0.70043 7.80499 0.520345 7.55996 0.520314L3.32786 0.519947C2.98782 0.51993 2.7096 0.791045 2.70367 1.13104C2.68128 2.41744 2.68759 3.73738 2.69388 5.04321L2.69401 5.07112C2.69691 5.67213 2.69979 6.27024 2.69975 6.86057L2.70098 29.5621C2.70107 30.1564 2.69729 30.7628 2.69349 31.3733L2.69326 31.4089C2.68606 32.5651 2.67885 33.7354 2.69657 34.8663C2.70192 35.2065 2.98046 35.4778 3.32076 35.4776L6.31439 35.4758C6.66052 35.4755 6.94103 35.1948 6.94091 34.8486L6.93332 15.168C6.93296 15.0878 6.93135 14.9699 6.92943 14.8295L6.92891 14.7919C6.92099 14.2114 6.90848 13.2889 6.94532 13.019C6.99376 12.708 6.99294 11.8578 6.98217 10.8728C6.98029 10.7007 7.11919 10.56 7.29132 10.56C7.44604 10.56 7.57674 10.6745 7.59847 10.8277C7.72528 11.7212 7.88231 12.5797 8.09625 13.2584C8.23447 13.6968 8.76078 13.703 8.87312 13.2571C9.05042 12.5535 9.01234 11.795 8.97389 11.0291C8.93654 10.2851 8.89885 9.53392 9.05788 8.81922C9.16404 8.34231 9.73918 8.35031 9.88618 8.81628C10.1518 9.65821 10.2714 10.5521 10.3857 11.4371Z" fill="var(--fill-0, #DFF0FF)" style="fill:#DFF0FF;fill:color(display-p3 0.8745 0.9412 1.0000);fill-opacity:1;"/>
</g>
</svg>
