<svg preserveAspectRatio="none" width="100%" height="100%" overflow="visible" style="display: block;" viewBox="0 0 16 16" fill="none" xmlns="http://www.w3.org/2000/svg">
<g id="Frame 110">
<rect width="16" height="16" rx="6" fill="var(--fill-0, #2C0E23)" style="fill:#2C0E23;fill:color(display-p3 0.1714 0.0546 0.1364);fill-opacity:1;"/>
<path id="Vector" d="M8.80895 9.61771H10.8311V11.6399M7.19121 6.38223H5.16904V4.36006M11 6.78804C10.7732 6.22679 10.3936 5.74041 9.90417 5.38418C9.41475 5.02795 8.83531 4.81606 8.23153 4.77278C7.62775 4.72951 7.0238 4.85646 6.48859 5.13924C5.95337 5.42203 5.50829 5.8494 5.20379 6.37257M5 9.21209C5.22676 9.77334 5.60642 10.2597 6.09583 10.616C6.58524 10.9722 7.16528 11.1838 7.76906 11.2271C8.37284 11.2704 8.97629 11.1434 9.51151 10.8606C10.0467 10.5779 10.4915 10.1506 10.796 9.62739" stroke="var(--stroke-0, #DFF0FF)" style="stroke:#DFF0FF;stroke:color(display-p3 0.8745 0.9412 1.0000);stroke-opacity:1;" stroke-linecap="round" stroke-linejoin="round"/>
</g>
</svg>
