<svg preserveAspectRatio="none" width="100%" height="100%" overflow="visible" style="display: block;" viewBox="0 0 85.3419 20.3732" fill="none" xmlns="http://www.w3.org/2000/svg">
<g id="Vector">
<path d="M9.35 13.2129C7.67475 13.2129 6.32374 11.8619 6.32374 10.1866C6.32374 8.51135 7.67475 7.13333 9.35 7.13333C11.0252 7.13333 12.4033 8.51135 12.4033 10.1866C12.4033 11.8619 11.0252 13.2129 9.35 13.2129ZM9.35 14.699C11.8359 14.699 13.8894 12.6725 13.8894 10.1866C13.8894 7.70075 11.8359 5.64722 9.35 5.64722C6.86414 5.64722 4.83763 7.70075 4.83763 10.1866C4.83763 12.6725 6.86414 14.699 9.35 14.699ZM9.35 1.48611C10.9712 1.48611 12.6735 3.05328 11.6737 5.86338L11.3495 6.78206L13.2949 3.94495C13.2949 1.75631 11.5386 0 9.35 0C7.16136 0 5.40505 1.75631 5.40505 3.94495L7.3505 6.78206L7.02626 5.86338C6.02652 3.05328 7.72879 1.48611 9.35 1.48611ZM1.81137 5.83636C2.62197 4.43131 4.83763 3.72878 6.75606 6.0255L7.40454 6.75504L5.91843 3.64772C4.02702 2.56692 1.62223 3.18838 0.541421 5.07979C-0.566406 6.99822 0.0820782 9.376 1.97349 10.4838L5.40505 10.2136L4.43232 10.0245C1.51415 9.5111 1.00076 7.24141 1.81137 5.83636ZM16.8886 5.83636C17.6992 7.24141 17.1858 9.5111 14.2677 10.0245L13.2949 10.2136L16.7265 10.4838C18.6179 9.376 19.2664 6.99822 18.1586 5.07979C17.0778 3.18838 14.673 2.56692 12.7816 3.64772L11.2954 6.75504L11.9439 6.0255C13.8624 3.72878 16.078 4.43131 16.8886 5.83636ZM9.35 18.8871C7.72879 18.8871 6.02652 17.3199 7.02626 14.5098L7.3505 13.5911L5.40505 16.4283C5.40505 18.6169 7.16136 20.3732 9.35 20.3732C11.5386 20.3732 13.2949 18.6169 13.2949 16.4283L11.3495 13.5911L11.6737 14.5098C12.6735 17.3199 10.9712 18.8871 9.35 18.8871ZM1.81137 14.5369C1.00076 13.1318 1.51415 10.8621 4.43232 10.3487L5.40505 10.1596L1.97349 9.88938C0.0820782 10.9972 -0.566406 13.375 0.541421 15.2934C1.62223 17.1848 4.02702 17.8063 5.91843 16.7255L7.40454 13.6182L6.75606 14.3477C4.83763 16.6444 2.62197 15.9419 1.81137 14.5369ZM16.8886 14.5369C16.078 15.9419 13.8624 16.6444 11.9439 14.3477L11.2954 13.6182L12.7816 16.7255C14.673 17.8063 17.0778 17.1848 18.1586 15.2934C19.2664 13.375 18.6179 10.9972 16.7265 9.88938L13.2949 10.1596L14.2677 10.3487C17.1858 10.8621 17.6992 13.1318 16.8886 14.5369Z" fill="var(--fill-0, #2C0E23)" style="fill:#2C0E23;fill:color(display-p3 0.1714 0.0546 0.1364);fill-opacity:1;"/>
<path d="M26.694 6.18655H25.798L25.343 4.89855H23.32L22.865 6.18655H21.969L23.831 1.28655H24.832L26.694 6.18655ZM25.091 4.17055L24.335 2.01455L23.572 4.17055H25.091Z" fill="var(--fill-0, #2C0E23)" style="fill:#2C0E23;fill:color(display-p3 0.1714 0.0546 0.1364);fill-opacity:1;"/>
<path d="M30.9937 6.27755C30.513 6.27755 30.0907 6.17489 29.7267 5.96955C29.3627 5.75955 29.0804 5.46555 28.8797 5.08755C28.6837 4.70489 28.5857 4.25922 28.5857 3.75055C28.5857 3.24189 28.6837 2.79389 28.8797 2.40655C29.0757 2.01922 29.3557 1.72055 29.7197 1.51055C30.0837 1.30055 30.5084 1.19555 30.9937 1.19555C31.3717 1.19555 31.7124 1.25855 32.0157 1.38455C32.3237 1.51055 32.5757 1.69022 32.7717 1.92355C32.9677 2.15689 33.0914 2.42989 33.1427 2.74255H32.2467C32.2047 2.49055 32.0694 2.29222 31.8407 2.14755C31.6167 1.99822 31.3367 1.92355 31.0007 1.92355C30.688 1.92355 30.4127 1.99822 30.1747 2.14755C29.9414 2.29689 29.7594 2.50922 29.6287 2.78455C29.5027 3.05522 29.4397 3.37255 29.4397 3.73655C29.4397 4.10055 29.5027 4.42022 29.6287 4.69555C29.7594 4.96622 29.9414 5.17622 30.1747 5.32555C30.4127 5.47489 30.688 5.54955 31.0007 5.54955C31.402 5.54955 31.7264 5.42589 31.9737 5.17855C32.221 4.93122 32.3704 4.59055 32.4217 4.15655H30.7487V3.43555H33.2687C33.278 3.52422 33.2827 3.65022 33.2827 3.81355C33.2827 4.31755 33.1917 4.75622 33.0097 5.12955C32.8277 5.49822 32.564 5.78289 32.2187 5.98355C31.8734 6.17955 31.465 6.27755 30.9937 6.27755Z" fill="var(--fill-0, #2C0E23)" style="fill:#2C0E23;fill:color(display-p3 0.1714 0.0546 0.1364);fill-opacity:1;"/>
<path d="M34.0968 2.68655H34.9018V3.34455C35.0278 3.13455 35.1911 2.97355 35.3918 2.86155C35.5971 2.74489 35.8281 2.68655 36.0848 2.68655H36.3298V3.44955H35.7978C35.5271 3.44955 35.3101 3.54055 35.1468 3.72255C34.9834 3.90455 34.9018 4.14955 34.9018 4.45755V6.18655H34.0968V2.68655Z" fill="var(--fill-0, #2C0E23)" style="fill:#2C0E23;fill:color(display-p3 0.1714 0.0546 0.1364);fill-opacity:1;"/>
<path d="M37.8269 6.23555C37.4722 6.23555 37.1899 6.13989 36.9799 5.94855C36.7699 5.75255 36.6649 5.49355 36.6649 5.17155C36.6649 4.83555 36.7792 4.56722 37.0079 4.36655C37.2412 4.16589 37.5516 4.06555 37.9389 4.06555H39.0729V3.93255C39.0729 3.71789 39.0052 3.54755 38.8699 3.42155C38.7346 3.29555 38.5526 3.23255 38.3239 3.23255C38.1279 3.23255 37.9599 3.27689 37.8199 3.36555C37.6846 3.45422 37.6052 3.57555 37.5819 3.72955H36.7349C36.7722 3.38889 36.9356 3.11589 37.2249 2.91055C37.5189 2.70055 37.8852 2.59555 38.3239 2.59555C38.6319 2.59555 38.9026 2.65155 39.1359 2.76355C39.3692 2.87555 39.5489 3.03422 39.6749 3.23955C39.8009 3.44022 39.8639 3.67355 39.8639 3.93955V5.40255C39.8639 5.57989 39.8686 5.72689 39.8779 5.84355C39.8919 5.95555 39.9152 6.06989 39.9479 6.18655H39.1219C39.1032 6.13989 39.0892 6.05822 39.0799 5.94155C39.0706 5.82489 39.0659 5.71055 39.0659 5.59855V5.57755C38.9306 5.78755 38.7556 5.95089 38.5409 6.06755C38.3309 6.17955 38.0929 6.23555 37.8269 6.23555ZM37.4629 5.14355C37.4629 5.28355 37.5142 5.39322 37.6169 5.47255C37.7196 5.55189 37.8619 5.59155 38.0439 5.59155C38.3192 5.59155 38.5479 5.51222 38.7299 5.35355C38.9119 5.19022 39.0216 4.97089 39.0589 4.69555H37.9809C37.8222 4.69555 37.6962 4.73755 37.6029 4.82155C37.5096 4.90089 37.4629 5.00822 37.4629 5.14355Z" fill="var(--fill-0, #2C0E23)" style="fill:#2C0E23;fill:color(display-p3 0.1714 0.0546 0.1364);fill-opacity:1;"/>
<path d="M42.8188 6.24255C42.5574 6.24255 42.3241 6.18655 42.1188 6.07455C41.9181 5.95789 41.7524 5.79222 41.6218 5.57755V7.37655H40.8168V2.68655H41.6218V3.29555C41.7524 3.08089 41.9181 2.91755 42.1188 2.80555C42.3241 2.68889 42.5574 2.63055 42.8188 2.63055C43.1081 2.63055 43.3624 2.70522 43.5818 2.85455C43.8011 2.99922 43.9691 3.20922 44.0858 3.48455C44.2024 3.75522 44.2608 4.07255 44.2608 4.43655C44.2608 4.80055 44.2024 5.12022 44.0858 5.39555C43.9691 5.66622 43.8011 5.87622 43.5818 6.02555C43.3624 6.17022 43.1081 6.24255 42.8188 6.24255ZM42.5668 5.57055C42.8374 5.57055 43.0521 5.47022 43.2108 5.26955C43.3694 5.06422 43.4488 4.78655 43.4488 4.43655C43.4488 4.08655 43.3694 3.81122 43.2108 3.61055C43.0521 3.40522 42.8374 3.30255 42.5668 3.30255C42.2821 3.30255 42.0534 3.40755 41.8808 3.61755C41.7081 3.82755 41.6218 4.10055 41.6218 4.43655C41.6218 4.77255 41.7081 5.04555 41.8808 5.25555C42.0534 5.46555 42.2821 5.57055 42.5668 5.57055Z" fill="var(--fill-0, #2C0E23)" style="fill:#2C0E23;fill:color(display-p3 0.1714 0.0546 0.1364);fill-opacity:1;"/>
<path d="M47.4253 4.02355C47.4253 3.80422 47.3623 3.62922 47.2363 3.49855C47.1103 3.36789 46.9423 3.30255 46.7323 3.30255C46.4616 3.30255 46.2446 3.40522 46.0813 3.61055C45.9179 3.81589 45.8363 4.08889 45.8363 4.42955V6.18655H45.0313V1.28655H45.8363V3.29555C45.9623 3.08555 46.1256 2.92222 46.3263 2.80555C46.5269 2.68889 46.7533 2.63055 47.0053 2.63055C47.3786 2.63055 47.6749 2.75189 47.8943 2.99455C48.1136 3.23722 48.2256 3.56855 48.2303 3.98855V6.18655H47.4253V4.02355Z" fill="var(--fill-0, #2C0E23)" style="fill:#2C0E23;fill:color(display-p3 0.1714 0.0546 0.1364);fill-opacity:1;"/>
<path d="M49.2142 2.68655H50.0192V6.18655H49.2142V2.68655ZM49.1442 1.28655H50.1032V2.19655H49.1442V1.28655Z" fill="var(--fill-0, #2C0E23)" style="fill:#2C0E23;fill:color(display-p3 0.1714 0.0546 0.1364);fill-opacity:1;"/>
<path d="M52.5935 6.27755C52.2388 6.27755 51.9285 6.20289 51.6625 6.05355C51.3965 5.89955 51.1912 5.68489 51.0465 5.40955C50.9018 5.12955 50.8295 4.80522 50.8295 4.43655C50.8295 4.06789 50.9018 3.74589 51.0465 3.47055C51.1912 3.19055 51.3965 2.97589 51.6625 2.82655C51.9285 2.67255 52.2388 2.59555 52.5935 2.59555C53.0508 2.59555 53.4265 2.71689 53.7205 2.95955C54.0192 3.20222 54.1918 3.52889 54.2385 3.93955H53.3845C53.3565 3.73422 53.2702 3.57089 53.1255 3.44955C52.9855 3.32822 52.8105 3.26755 52.6005 3.26755C52.3112 3.26755 52.0778 3.37489 51.9005 3.58955C51.7278 3.80422 51.6415 4.08655 51.6415 4.43655C51.6415 4.79122 51.7278 5.07589 51.9005 5.29055C52.0778 5.50055 52.3112 5.60555 52.6005 5.60555C52.8152 5.60555 52.9925 5.54489 53.1325 5.42355C53.2725 5.30222 53.3565 5.13889 53.3845 4.93355H54.2385C54.1918 5.34422 54.0192 5.67089 53.7205 5.91355C53.4265 6.15622 53.0508 6.27755 52.5935 6.27755Z" fill="var(--fill-0, #2C0E23)" style="fill:#2C0E23;fill:color(display-p3 0.1714 0.0546 0.1364);fill-opacity:1;"/>
<path d="M57.5742 2.02155H56.0202V1.28655H59.9682V2.02155H58.4212V6.18655H57.5742V2.02155Z" fill="var(--fill-0, #2C0E23)" style="fill:#2C0E23;fill:color(display-p3 0.1714 0.0546 0.1364);fill-opacity:1;"/>
<path d="M61.3942 6.27755C61.0489 6.27755 60.7455 6.20289 60.4842 6.05355C60.2275 5.89955 60.0269 5.68489 59.8822 5.40955C59.7422 5.12955 59.6722 4.80522 59.6722 4.43655C59.6722 4.06789 59.7422 3.74589 59.8822 3.47055C60.0269 3.19055 60.2275 2.97589 60.4842 2.82655C60.7455 2.67255 61.0489 2.59555 61.3942 2.59555C61.7395 2.59555 62.0429 2.67022 62.3042 2.81955C62.5655 2.96889 62.7662 3.18355 62.9062 3.46355C63.0509 3.73889 63.1232 4.06322 63.1232 4.43655C63.1232 4.80522 63.0509 5.12955 62.9062 5.40955C62.7662 5.68489 62.5655 5.89955 62.3042 6.05355C62.0429 6.20289 61.7395 6.27755 61.3942 6.27755ZM61.3942 5.60555C61.6695 5.60555 61.8889 5.49822 62.0522 5.28355C62.2202 5.06889 62.3042 4.78655 62.3042 4.43655C62.3042 4.08189 62.2202 3.79955 62.0522 3.58955C61.8889 3.37489 61.6695 3.26755 61.3942 3.26755C61.1189 3.26755 60.8972 3.37489 60.7292 3.58955C60.5659 3.80422 60.4842 4.08655 60.4842 4.43655C60.4842 4.79122 60.5659 5.07589 60.7292 5.29055C60.8972 5.50055 61.1189 5.60555 61.3942 5.60555Z" fill="var(--fill-0, #2C0E23)" style="fill:#2C0E23;fill:color(display-p3 0.1714 0.0546 0.1364);fill-opacity:1;"/>
<path d="M65.4515 6.27755C65.1061 6.27755 64.8028 6.20289 64.5415 6.05355C64.2848 5.89955 64.0841 5.68489 63.9395 5.40955C63.7995 5.12955 63.7295 4.80522 63.7295 4.43655C63.7295 4.06789 63.7995 3.74589 63.9395 3.47055C64.0841 3.19055 64.2848 2.97589 64.5415 2.82655C64.8028 2.67255 65.1061 2.59555 65.4515 2.59555C65.7968 2.59555 66.1001 2.67022 66.3615 2.81955C66.6228 2.96889 66.8235 3.18355 66.9635 3.46355C67.1081 3.73889 67.1805 4.06322 67.1805 4.43655C67.1805 4.80522 67.1081 5.12955 66.9635 5.40955C66.8235 5.68489 66.6228 5.89955 66.3615 6.05355C66.1001 6.20289 65.7968 6.27755 65.4515 6.27755ZM65.4515 5.60555C65.7268 5.60555 65.9461 5.49822 66.1095 5.28355C66.2775 5.06889 66.3615 4.78655 66.3615 4.43655C66.3615 4.08189 66.2775 3.79955 66.1095 3.58955C65.9461 3.37489 65.7268 3.26755 65.4515 3.26755C65.1761 3.26755 64.9545 3.37489 64.7865 3.58955C64.6231 3.80422 64.5415 4.08655 64.5415 4.43655C64.5415 4.79122 64.6231 5.07589 64.7865 5.29055C64.9545 5.50055 65.1761 5.60555 65.4515 5.60555Z" fill="var(--fill-0, #2C0E23)" style="fill:#2C0E23;fill:color(display-p3 0.1714 0.0546 0.1364);fill-opacity:1;"/>
<path d="M67.9429 1.28655H68.7479V6.18655H67.9429V1.28655Z" fill="var(--fill-0, #2C0E23)" style="fill:#2C0E23;fill:color(display-p3 0.1714 0.0546 0.1364);fill-opacity:1;"/>
<path d="M73.2948 6.24255C73.0334 6.24255 72.8001 6.18655 72.5947 6.07455C72.3941 5.95789 72.2284 5.79222 72.0977 5.57755V6.18655H71.2927V1.28655H72.0977V3.29555C72.2284 3.08089 72.3941 2.91755 72.5947 2.80555C72.8001 2.68889 73.0334 2.63055 73.2948 2.63055C73.5841 2.63055 73.8384 2.70522 74.0578 2.85455C74.2771 2.99922 74.4451 3.20922 74.5618 3.48455C74.6784 3.75522 74.7367 4.07255 74.7367 4.43655C74.7367 4.80055 74.6784 5.12022 74.5618 5.39555C74.4451 5.66622 74.2771 5.87622 74.0578 6.02555C73.8384 6.17022 73.5841 6.24255 73.2948 6.24255ZM73.0428 5.57055C73.3134 5.57055 73.5281 5.47022 73.6868 5.26955C73.8454 5.06422 73.9248 4.78655 73.9248 4.43655C73.9248 4.08655 73.8454 3.81122 73.6868 3.61055C73.5281 3.40522 73.3134 3.30255 73.0428 3.30255C72.7581 3.30255 72.5294 3.40755 72.3568 3.61755C72.1841 3.82755 72.0977 4.10055 72.0977 4.43655C72.0977 4.77255 72.1841 5.04555 72.3568 5.25555C72.5294 5.46555 72.7581 5.57055 73.0428 5.57055Z" fill="var(--fill-0, #2C0E23)" style="fill:#2C0E23;fill:color(display-p3 0.1714 0.0546 0.1364);fill-opacity:1;"/>
<path d="M75.2362 6.70455H75.7892C76.0225 6.70455 76.1835 6.59255 76.2722 6.36855L76.3492 6.17955L74.9982 2.68655H75.8382L76.7902 5.31855L77.6932 2.68655H78.5472L77.2032 6.18655L77.0282 6.64855C76.8415 7.13389 76.4495 7.37655 75.8522 7.37655H75.2362V6.70455Z" fill="var(--fill-0, #2C0E23)" style="fill:#2C0E23;fill:color(display-p3 0.1714 0.0546 0.1364);fill-opacity:1;"/>
<path d="M23.9514 19.1866V11.0246H22.3694V9.38655H27.5774V11.0246H25.9954V19.1866H23.9514Z" fill="var(--fill-0, #2C0E23)" style="fill:#2C0E23;fill:color(display-p3 0.1714 0.0546 0.1364);fill-opacity:1;"/>
<path d="M30.2058 19.1866V15.4206L27.9098 9.38655H30.0378L30.7798 11.7106L31.2418 13.2786C31.3678 12.8026 31.5218 12.2566 31.6898 11.7106L32.4318 9.38655H34.5598L32.2638 15.4206V19.1866H30.2058Z" fill="var(--fill-0, #2C0E23)" style="fill:#2C0E23;fill:color(display-p3 0.1714 0.0546 0.1364);fill-opacity:1;"/>
<path d="M35.3194 19.1866V9.38655H37.8954C39.7714 9.38655 40.9614 10.5206 40.9614 12.3266V12.7466C40.9614 14.5806 39.7714 15.7146 37.8114 15.7006H37.3774V19.1866H35.3194ZM37.8954 14.0766C38.5394 14.0766 38.9734 13.5866 38.9734 12.8726V12.2146C38.9734 11.5006 38.5254 11.0246 37.8954 11.0246H37.3774V14.0766H37.8954Z" fill="var(--fill-0, #2C0E23)" style="fill:#2C0E23;fill:color(display-p3 0.1714 0.0546 0.1364);fill-opacity:1;"/>
<path d="M44.6422 19.3126C42.8082 19.3126 41.7162 17.9826 41.7022 15.7146V12.8586C41.7022 10.6046 42.8082 9.26055 44.6422 9.26055C46.4762 9.26055 47.5682 10.5906 47.5822 12.8586V15.7146C47.5822 17.9686 46.4762 19.3126 44.6422 19.3126ZM44.6422 17.6746C45.1602 17.6746 45.4962 17.2406 45.4822 16.4986V12.0746C45.4822 11.3466 45.1462 10.8986 44.6422 10.8986C44.1242 10.8986 43.7882 11.3326 43.8022 12.0746V16.4986C43.8022 17.2266 44.1242 17.6746 44.6422 17.6746Z" fill="var(--fill-0, #2C0E23)" style="fill:#2C0E23;fill:color(display-p3 0.1714 0.0546 0.1364);fill-opacity:1;"/>
<path d="M50.8808 19.3126C49.3688 19.3126 48.4868 17.9826 48.4868 15.7146V12.8586C48.4868 10.5766 49.5648 9.26055 51.4268 9.26055C53.2048 9.26055 54.3248 10.4506 54.3248 12.3966V12.6906H52.2668V12.0746C52.2668 11.3326 51.9448 10.8986 51.4268 10.8986C50.8948 10.8986 50.5868 11.3326 50.5868 12.0746L50.5728 16.4986C50.5728 17.2406 50.9228 17.6746 51.4688 17.6746C52.0148 17.6746 52.3508 17.2406 52.3508 16.4986V15.3646H51.4548V13.8246H54.3108V19.1866H52.8548L52.5468 18.3046C52.2108 18.9486 51.6368 19.3126 50.8808 19.3126Z" fill="var(--fill-0, #2C0E23)" style="fill:#2C0E23;fill:color(display-p3 0.1714 0.0546 0.1364);fill-opacity:1;"/>
<path d="M55.3996 19.1866V9.38655H57.9756C59.8516 9.38655 61.0416 10.4086 61.0416 12.0606V12.3546C61.0416 13.4466 60.4676 14.2586 59.5156 14.6646C60.2436 15.0426 60.7336 15.7146 60.8456 16.5546L61.1816 19.1866H59.1516L58.8436 16.5546C58.7596 15.9386 58.3396 15.5466 57.7936 15.5466H57.4576V19.1866H55.3996ZM57.9756 13.9086C58.6196 13.9086 59.0536 13.4186 59.0536 12.7046V12.0606C59.0536 11.3886 58.6056 10.9266 57.9756 10.9266H57.4576V13.9086H57.9756Z" fill="var(--fill-0, #2C0E23)" style="fill:#2C0E23;fill:color(display-p3 0.1714 0.0546 0.1364);fill-opacity:1;"/>
<path d="M63.5294 9.38655H66.6934L68.5134 19.1866H66.4974L66.1054 16.9326H64.1174L63.7254 19.1866H61.7094L63.5294 9.38655ZM64.3974 15.3646H65.8394L65.3914 12.8026L65.1114 10.9966L64.8454 12.8026L64.3974 15.3646Z" fill="var(--fill-0, #2C0E23)" style="fill:#2C0E23;fill:color(display-p3 0.1714 0.0546 0.1364);fill-opacity:1;"/>
<path d="M70.7651 9.38655H73.9291L75.7491 19.1866H73.7331L73.3411 16.9326H71.3531L70.9611 19.1866H68.9451L70.7651 9.38655ZM71.6331 15.3646H73.0751L72.6271 12.8026L72.3471 10.9966L72.0811 12.8026L71.6331 15.3646Z" fill="var(--fill-0, #2C0E23)" style="fill:#2C0E23;fill:color(display-p3 0.1714 0.0546 0.1364);fill-opacity:1;"/>
<path d="M76.5051 19.1866V9.38655H81.1671V10.9686H78.5631V13.7686H80.8031V15.3506H78.5631V19.1866H76.5051Z" fill="var(--fill-0, #2C0E23)" style="fill:#2C0E23;fill:color(display-p3 0.1714 0.0546 0.1364);fill-opacity:1;"/>
<path d="M83.8499 12.2586C84.4979 12.2586 84.8979 11.8506 84.8979 11.1866V10.4666C84.8979 9.80255 84.4979 9.39455 83.8499 9.39455C83.2019 9.39455 82.7979 9.80255 82.7979 10.4666V11.1866C82.7979 11.8466 83.2019 12.2586 83.8499 12.2586ZM83.8499 12.7026C82.9539 12.7026 82.3539 12.0906 82.3539 11.1866V10.4666C82.3539 9.55855 82.9539 8.95055 83.8499 8.95055C84.7459 8.95055 85.3419 9.55855 85.3419 10.4666V11.1866C85.3419 12.0946 84.7459 12.7026 83.8499 12.7026ZM83.8499 11.8106C83.4859 11.8106 83.2579 11.5506 83.2579 11.1466V10.4666C83.2579 10.0586 83.4859 9.80255 83.8499 9.80255C84.2099 9.80255 84.4379 10.0626 84.4379 10.4666V10.6266H84.0099V10.3666C84.0099 10.2226 83.9459 10.1386 83.8499 10.1386C83.7499 10.1386 83.6859 10.2186 83.6899 10.3666V11.2466C83.6899 11.3906 83.7539 11.4746 83.8499 11.4746C83.9499 11.4746 84.0099 11.3866 84.0099 11.2466V10.9866H84.4379V11.1466C84.4379 11.5546 84.2099 11.8106 83.8499 11.8106Z" fill="var(--fill-0, #2C0E23)" style="fill:#2C0E23;fill:color(display-p3 0.1714 0.0546 0.1364);fill-opacity:1;"/>
</g>
</svg>
